<svg width="216" height="103" viewBox="0 0 216 103" fill="none" xmlns="http://www.w3.org/2000/svg">
<g filter="url(#filter0_d_507_1389)">
<rect x="16" y="14" width="184" height="70.7897" rx="10" fill="#0A0A0A"/>
<path d="M63.2695 50.3108C63.2982 48.0871 64.4924 45.9831 66.3868 44.8184C65.1917 43.1115 63.1899 42.0294 61.1073 41.9642C58.886 41.731 56.7325 43.2934 55.6006 43.2934C54.4467 43.2934 52.7039 41.9873 50.8272 42.026C48.381 42.105 46.1005 43.4958 44.9104 45.6344C42.3521 50.0637 44.2604 56.5733 46.711 60.1536C47.9371 61.9068 49.3701 63.8652 51.2451 63.7957C53.0799 63.7196 53.7652 62.6257 55.98 62.6257C58.1742 62.6257 58.8171 63.7957 60.7302 63.7516C62.699 63.7196 63.9395 61.9906 65.1226 60.2208C66.0035 58.9716 66.6814 57.591 67.1311 56.13C64.8174 55.1514 63.2722 52.823 63.2695 50.3108Z" fill="white"/>
<path d="M59.6561 39.6096C60.7296 38.3209 61.2584 36.6645 61.1304 34.9922C59.4903 35.1644 57.9754 35.9483 56.8874 37.1875C55.8235 38.3983 55.2698 40.0256 55.3745 41.634C57.0151 41.6509 58.628 40.8883 59.6561 39.6096Z" fill="white"/>
<path d="M137.925 47.2402V50.0529H136.162V51.8975H137.925V58.165C137.925 60.3051 138.893 61.1612 141.328 61.1612C141.757 61.1612 142.164 61.1102 142.521 61.0491V59.2249C142.215 59.2554 142.021 59.2758 141.685 59.2758C140.595 59.2758 140.116 58.7663 140.116 57.6045V51.8975H142.521V50.0529H140.116V47.2402H137.925Z" fill="white"/>
<path d="M148.726 61.314C151.966 61.314 153.954 59.1433 153.954 55.5459C153.954 51.9688 151.956 49.7879 148.726 49.7879C145.485 49.7879 143.487 51.9688 143.487 55.5459C143.487 59.1433 145.475 61.314 148.726 61.314ZM148.726 59.3675C146.82 59.3675 145.75 57.9714 145.75 55.5459C145.75 53.1408 146.82 51.7344 148.726 51.7344C150.621 51.7344 151.701 53.1408 151.701 55.5459C151.701 57.9612 150.621 59.3675 148.726 59.3675Z" fill="white"/>
<path d="M155.654 61.1H157.845V54.5472C157.845 52.9879 159.017 51.9382 160.678 51.9382C161.065 51.9382 161.718 52.0096 161.901 52.0707V49.9102C161.667 49.8491 161.249 49.8185 160.923 49.8185C159.476 49.8185 158.242 50.6134 157.926 51.7039H157.763V50.0019H155.654V61.1Z" fill="white"/>
<path d="M167.341 51.6529C168.962 51.6529 170.022 52.7841 170.073 54.5268H164.468C164.59 52.7943 165.721 51.6529 167.341 51.6529ZM170.062 58.1038C169.655 58.9701 168.748 59.4491 167.423 59.4491C165.67 59.4491 164.539 58.2159 164.468 56.2695V56.1472H172.304V55.3828C172.304 51.8975 170.439 49.7879 167.352 49.7879C164.223 49.7879 162.236 52.0402 162.236 55.5867C162.236 59.1331 164.182 61.314 167.362 61.314C169.899 61.314 171.673 60.0911 172.172 58.1038H170.062Z" fill="white"/>
<path d="M123.556 57.0017C123.725 59.7269 125.996 61.4697 129.376 61.4697C132.988 61.4697 135.249 59.6424 135.249 56.727C135.249 54.4349 133.96 53.1674 130.834 52.4386L129.154 52.0266C127.168 51.5619 126.366 50.9387 126.366 49.8507C126.366 48.4775 127.612 47.5797 129.482 47.5797C131.256 47.5797 132.481 48.4564 132.703 49.8613H135.006C134.869 47.2945 132.608 45.4883 129.513 45.4883C126.186 45.4883 123.968 47.2945 123.968 50.0091C123.968 52.2484 125.225 53.5793 127.982 54.2237L129.946 54.699C131.964 55.1743 132.851 55.8715 132.851 57.0334C132.851 58.3854 131.457 59.3677 129.556 59.3677C127.517 59.3677 126.102 58.4488 125.901 57.0017H123.556Z" fill="white"/>
<path d="M100.859 49.8185C99.3503 49.8185 98.0458 50.5726 97.3732 51.8363H97.2101V50.0019H95.1006V64.7892H97.2917V59.4185H97.4649C98.0458 60.5905 99.2993 61.2835 100.879 61.2835C103.681 61.2835 105.465 59.072 105.465 55.5459C105.465 52.0198 103.681 49.8185 100.859 49.8185ZM100.237 59.3166C98.4025 59.3166 97.2509 57.8695 97.2509 55.5561C97.2509 53.2325 98.4025 51.7854 100.247 51.7854C102.102 51.7854 103.213 53.2019 103.213 55.5459C103.213 57.9 102.102 59.3166 100.237 59.3166Z" fill="white"/>
<path d="M113.132 49.8185C111.624 49.8185 110.319 50.5726 109.647 51.8363H109.483V50.0019H107.374V64.7892H109.565V59.4185H109.738C110.319 60.5905 111.573 61.2835 113.152 61.2835C115.955 61.2835 117.738 59.072 117.738 55.5459C117.738 52.0198 115.955 49.8185 113.132 49.8185ZM112.51 59.3166C110.676 59.3166 109.524 57.8695 109.524 55.5561C109.524 53.2325 110.676 51.7854 112.52 51.7854C114.375 51.7854 115.486 53.2019 115.486 55.5459C115.486 57.9 114.375 59.3166 112.51 59.3166Z" fill="white"/>
<path d="M91.1694 61.1H93.6834L88.1802 45.858H85.6345L80.1313 61.1H82.5608L83.9656 57.0545H89.7751L91.1694 61.1ZM86.7859 48.6254H86.9654L89.1731 55.0687H84.5677L86.7859 48.6254Z" fill="white"/>
<path d="M81.6033 34.3618V41.7146H84.258C86.4491 41.7146 87.7179 40.3643 87.7179 38.0153C87.7179 35.7019 86.4389 34.3618 84.258 34.3618H81.6033ZM82.7447 35.4013H84.1307C85.6542 35.4013 86.5561 36.3694 86.5561 38.0306C86.5561 39.7172 85.6695 40.6752 84.1307 40.6752H82.7447V35.4013Z" fill="white"/>
<path d="M91.6038 41.8216C93.2241 41.8216 94.2178 40.7363 94.2178 38.9376C94.2178 37.149 93.2191 36.0586 91.6038 36.0586C89.9834 36.0586 88.9847 37.149 88.9847 38.9376C88.9847 40.7363 89.9783 41.8216 91.6038 41.8216ZM91.6038 40.8484C90.6509 40.8484 90.1159 40.1503 90.1159 38.9376C90.1159 37.735 90.6509 37.0318 91.6038 37.0318C92.5515 37.0318 93.0917 37.735 93.0917 38.9376C93.0917 40.1452 92.5515 40.8484 91.6038 40.8484Z" fill="white"/>
<path d="M102.679 36.1656H101.584L100.595 40.4H100.509L99.3673 36.1656H98.3176L97.1762 40.4H97.0947L96.1011 36.1656H94.9903L96.5189 41.7146H97.645L98.7864 37.628H98.8731L100.02 41.7146H101.156L102.679 36.1656Z" fill="white"/>
<path d="M103.941 41.7146H105.037V38.4688C105.037 37.6025 105.551 37.0624 106.361 37.0624C107.172 37.0624 107.559 37.5057 107.559 38.3974V41.7146H108.654V38.1223C108.654 36.8025 107.972 36.0586 106.733 36.0586C105.898 36.0586 105.347 36.4306 105.077 37.0471H104.996V36.1656H103.941V41.7146Z" fill="white"/>
<path d="M110.38 41.7146H111.475V34H110.38V41.7146Z" fill="white"/>
<path d="M115.596 41.8216C117.216 41.8216 118.21 40.7363 118.21 38.9376C118.21 37.149 117.211 36.0586 115.596 36.0586C113.975 36.0586 112.976 37.149 112.976 38.9376C112.976 40.7363 113.97 41.8216 115.596 41.8216ZM115.596 40.8484C114.643 40.8484 114.108 40.1503 114.108 38.9376C114.108 37.735 114.643 37.0318 115.596 37.0318C116.543 37.0318 117.083 37.735 117.083 38.9376C117.083 40.1452 116.543 40.8484 115.596 40.8484Z" fill="white"/>
<path d="M121.474 40.8841C120.878 40.8841 120.444 40.5936 120.444 40.0943C120.444 39.6051 120.791 39.3452 121.555 39.2943L122.911 39.2076V39.6713C122.911 40.3592 122.299 40.8841 121.474 40.8841ZM121.194 41.8064C121.922 41.8064 122.529 41.4904 122.86 40.935H122.946V41.7146H124.001V37.9236C124.001 36.7516 123.216 36.0586 121.825 36.0586C120.567 36.0586 119.67 36.6701 119.558 37.6229H120.618C120.74 37.2306 121.163 37.0064 121.774 37.0064C122.523 37.0064 122.911 37.3376 122.911 37.9236V38.4025L121.408 38.4892C120.088 38.5707 119.344 39.1465 119.344 40.1452C119.344 41.1592 120.123 41.8064 121.194 41.8064Z" fill="white"/>
<path d="M127.719 41.8064C128.483 41.8064 129.13 41.4446 129.462 40.8382H129.548V41.7146H130.598V34H129.502V37.0471H129.421C129.12 36.4357 128.478 36.0739 127.719 36.0739C126.318 36.0739 125.416 37.1847 125.416 38.9376C125.416 40.6955 126.307 41.8064 127.719 41.8064ZM128.03 37.0573C128.947 37.0573 129.523 37.786 129.523 38.9427C129.523 40.1045 128.952 40.8229 128.03 40.8229C127.102 40.8229 126.547 40.1146 126.547 38.9376C126.547 37.7707 127.107 37.0573 128.03 37.0573Z" fill="white"/>
<path d="M137.702 41.8216C139.322 41.8216 140.316 40.7363 140.316 38.9376C140.316 37.149 139.317 36.0586 137.702 36.0586C136.082 36.0586 135.083 37.149 135.083 38.9376C135.083 40.7363 136.077 41.8216 137.702 41.8216ZM137.702 40.8484C136.749 40.8484 136.214 40.1503 136.214 38.9376C136.214 37.735 136.749 37.0318 137.702 37.0318C138.65 37.0318 139.19 37.735 139.19 38.9376C139.19 40.1452 138.65 40.8484 137.702 40.8484Z" fill="white"/>
<path d="M141.766 41.7146H142.862V38.4688C142.862 37.6025 143.376 37.0624 144.187 37.0624C144.997 37.0624 145.384 37.5057 145.384 38.3974V41.7146H146.48V38.1223C146.48 36.8025 145.797 36.0586 144.559 36.0586C143.723 36.0586 143.173 36.4306 142.903 37.0471H142.821V36.1656H141.766V41.7146Z" fill="white"/>
<path d="M151.525 34.7847V36.1911H150.644V37.1134H151.525V40.2471C151.525 41.3172 152.009 41.7452 153.227 41.7452C153.441 41.7452 153.645 41.7197 153.823 41.6892V40.7771C153.67 40.7923 153.574 40.8025 153.405 40.8025C152.86 40.8025 152.621 40.5478 152.621 39.9669V37.1134H153.823V36.1911H152.621V34.7847H151.525Z" fill="white"/>
<path d="M155.294 41.7146H156.389V38.4739C156.389 37.6331 156.889 37.0675 157.786 37.0675C158.56 37.0675 158.973 37.5159 158.973 38.4025V41.7146H160.068V38.1325C160.068 36.8127 159.34 36.0637 158.158 36.0637C157.322 36.0637 156.736 36.4357 156.466 37.0573H156.379V34H155.294V41.7146Z" fill="white"/>
<path d="M164.02 36.9911C164.831 36.9911 165.361 37.5567 165.386 38.428H162.584C162.645 37.5618 163.21 36.9911 164.02 36.9911ZM165.381 40.2166C165.177 40.6497 164.724 40.8892 164.061 40.8892C163.185 40.8892 162.619 40.2726 162.584 39.2994V39.2382H166.502V38.856C166.502 37.1134 165.57 36.0586 164.026 36.0586C162.461 36.0586 161.468 37.1847 161.468 38.958C161.468 40.7312 162.441 41.8216 164.031 41.8216C165.299 41.8216 166.186 41.2102 166.436 40.2166H165.381Z" fill="white"/>
</g>
<defs>
<filter id="filter0_d_507_1389" x="0" y="0" width="216" height="102.789" filterUnits="userSpaceOnUse" color-interpolation-filters="sRGB">
<feFlood flood-opacity="0" result="BackgroundImageFix"/>
<feColorMatrix in="SourceAlpha" type="matrix" values="0 0 0 0 0 0 0 0 0 0 0 0 0 0 0 0 0 0 127 0" result="hardAlpha"/>
<feMorphology radius="1" operator="erode" in="SourceAlpha" result="effect1_dropShadow_507_1389"/>
<feOffset dy="2"/>
<feGaussianBlur stdDeviation="8.5"/>
<feComposite in2="hardAlpha" operator="out"/>
<feColorMatrix type="matrix" values="0 0 0 0 0.724884 0 0 0 0 0.724884 0 0 0 0 0.724884 0 0 0 0.3 0"/>
<feBlend mode="normal" in2="BackgroundImageFix" result="effect1_dropShadow_507_1389"/>
<feBlend mode="normal" in="SourceGraphic" in2="effect1_dropShadow_507_1389" result="shape"/>
</filter>
</defs>
</svg>
