<svg width="35" height="34" viewBox="0 0 35 34" fill="none" xmlns="http://www.w3.org/2000/svg">
<path d="M32.2127 23.2031C29.9146 23.2031 27.6912 22.8294 25.6173 22.1568C24.9633 21.9326 24.2346 22.1008 23.7302 22.6052L20.7968 26.286C15.5092 23.7637 10.5579 18.9992 7.92346 13.5248L11.5669 10.4232C12.0713 9.90008 12.2208 9.1714 12.0153 8.51746C11.324 6.44353 10.969 4.22013 10.969 1.92199C10.969 0.913048 10.1282 0.0722656 9.11924 0.0722656H2.65456C1.64562 0.0722656 0.431152 0.520683 0.431152 1.92199C0.431152 19.2795 14.8739 33.7036 32.2127 33.7036C33.5393 33.7036 34.0625 32.5265 34.0625 31.4989V25.0529C34.0625 24.0439 33.2217 23.2031 32.2127 23.2031Z" fill="#0E6EFF"/>
</svg>
