<svg width="101" height="101" viewBox="0 0 101 101" fill="none" xmlns="http://www.w3.org/2000/svg">
<circle cx="50.7021" cy="50.1582" r="48.5" stroke="#0E6EFF" stroke-width="3"/>
<g clip-path="url(#clip0_586_1553)">
<path d="M64.2551 42.8537C64.2551 49.569 61.0402 55.5344 56.0649 59.2908C55.895 59.4199 55.7205 59.5468 55.5461 59.6691C52.1907 62.0458 48.0899 63.4414 43.6651 63.4414C40.6383 63.4414 37.7654 62.7889 35.1758 61.6153C33.9773 61.0738 32.84 60.4168 31.7774 59.6646C31.5259 59.4879 31.2812 59.3044 31.0388 59.1163C26.1949 55.3509 23.0774 49.467 23.0774 42.8537C23.0774 31.4825 32.294 22.2637 43.6651 22.2637C55.0363 22.2637 64.2551 31.4825 64.2551 42.8537Z" fill="white"/>
<path d="M34.4363 59.1144C37.5039 61.5001 41.2603 63.0339 45.3611 63.3692C44.8015 63.4168 44.2351 63.4395 43.6641 63.4395C38.9041 63.4395 34.5246 61.8263 31.0378 59.1144C26.1939 55.3489 23.0764 49.4651 23.0764 42.8517C23.0764 31.4805 32.293 22.2617 43.6641 22.2617C44.2374 22.2617 44.8038 22.2844 45.3634 22.332C34.7874 23.1952 26.4749 32.0537 26.4749 42.8517C26.4749 49.4651 29.5924 55.3489 34.4363 59.1144Z" fill="white"/>
<path d="M64.2539 42.8517C64.2539 49.567 61.039 55.5324 56.0637 59.2888C52.6154 61.8943 48.3197 63.4395 43.6639 63.4395C43.0907 63.4395 42.522 63.4168 41.9624 63.3692C45.9635 63.0452 49.6406 61.5748 52.6652 59.2888C57.6405 55.5324 60.8554 49.567 60.8554 42.8517C60.8554 32.0537 52.5406 23.1952 41.9647 22.332C42.5243 22.2844 43.0907 22.2617 43.6639 22.2617C55.0351 22.2617 64.2539 31.4805 64.2539 42.8517Z" fill="white"/>
<path d="M55.546 58.5691V59.6679C52.1906 62.0445 48.0898 63.4402 43.6651 63.4402C40.6382 63.4402 37.7654 62.7877 35.1758 61.6141C33.9773 61.0726 32.8399 60.4155 31.7773 59.6634V58.5691C31.7773 52.4179 36.4491 47.3587 42.4394 46.747C38.7668 46.1557 35.9574 42.9408 35.9574 39.062C35.9574 34.7619 39.408 31.2773 43.6605 31.2773C43.9279 31.2773 44.1907 31.2909 44.449 31.3181C44.5124 31.3249 44.5781 31.3317 44.6416 31.3408C44.705 31.3476 44.7707 31.3566 44.8341 31.368C45.0109 31.3952 45.1876 31.4291 45.3598 31.4677C48.7967 32.2493 51.3637 35.3509 51.3637 39.062C51.3637 42.7709 48.7967 45.8725 45.362 46.6519C45.2986 46.6677 45.2352 46.6813 45.1695 46.6949C45.0743 46.7153 44.9791 46.7312 44.884 46.747C45.0448 46.7629 45.2034 46.7833 45.362 46.8059C51.119 47.6306 55.546 52.5833 55.546 58.5691Z" fill="#5E5D60"/>
<path d="M44.884 46.747C45.0448 46.7629 45.2034 46.7833 45.362 46.8059C39.6028 47.6284 35.1758 52.581 35.1758 58.5691V61.6141C33.9773 61.0726 32.8399 60.4155 31.7773 59.6634V58.5691C31.7773 52.4179 36.4491 47.3587 42.4394 46.747C38.7668 46.1557 35.9574 42.9408 35.9574 39.062C35.9574 34.7619 39.408 31.2773 43.6605 31.2773C43.9279 31.2773 44.1907 31.2909 44.449 31.3181C44.5124 31.3249 44.5781 31.3317 44.6416 31.3408C44.705 31.3476 44.7707 31.3566 44.8341 31.368C45.0109 31.3952 45.1876 31.4291 45.3598 31.4677C41.9228 32.2493 39.3559 35.3532 39.3559 39.062C39.3559 42.7709 41.9251 45.8725 45.362 46.6519C45.2986 46.6677 45.2352 46.6813 45.1695 46.6949C45.0743 46.7153 44.9791 46.7312 44.884 46.747Z" fill="#5E5D60"/>
<path d="M64.2403 78.0606C72.0187 78.0606 78.3243 71.755 78.3243 63.9766C78.3243 56.1982 72.0187 49.8926 64.2403 49.8926C56.4619 49.8926 50.1562 56.1982 50.1562 63.9766C50.1562 71.755 56.4619 78.0606 64.2403 78.0606Z" fill="white"/>
<path d="M74.2002 73.9355C71.017 77.1187 66.6874 78.46 62.5413 77.9593C65.5613 77.5945 68.484 76.2533 70.8017 73.9355C76.3004 68.4346 76.3004 59.5171 70.8017 54.0184C68.484 51.7007 65.5613 50.3594 62.5413 49.9947C66.6874 49.494 71.017 50.8352 74.2002 54.0184C79.6988 59.5171 79.6988 68.4346 74.2002 73.9355Z" fill="white"/>
<path d="M57.6792 73.9355C59.9969 76.2533 62.9196 77.5945 65.9396 77.9593C61.7935 78.46 57.4639 77.1187 54.2807 73.9355C48.7798 68.4346 48.7798 59.5171 54.2807 54.0184C57.4639 50.8352 61.7935 49.494 65.9396 49.9947C62.9196 50.3594 59.9969 51.7007 57.6792 54.0184C52.1782 59.5171 52.1782 68.4346 57.6792 73.9355Z" fill="white"/>
<path d="M73.3256 63.9755C73.3256 65.4776 72.1067 66.6942 70.6068 66.6942H66.9592V70.3419C66.9592 71.844 65.7425 73.0606 64.2404 73.0606C62.7383 73.0606 61.5217 71.844 61.5217 70.3419V66.6942H57.874C56.3719 66.6942 55.1553 65.4776 55.1553 63.9755C55.1553 62.4756 56.3719 61.2567 57.874 61.2567H61.5217V57.6113C61.5217 56.1092 62.7383 54.8926 64.2404 54.8926C65.7425 54.8926 66.9592 56.1092 66.9592 57.6113V61.2567H70.6068C72.1067 61.2567 73.3256 62.4756 73.3256 63.9755Z" fill="#5E5D60"/>
<path d="M64.2404 54.8926V73.0606C62.7383 73.0606 61.5217 71.844 61.5217 70.3419V66.6942H57.874C56.3719 66.6942 55.1553 65.4776 55.1553 63.9755C55.1553 62.4756 56.3719 61.2567 57.874 61.2567H61.5217V57.6113C61.5217 56.1092 62.7383 54.8926 64.2404 54.8926Z" fill="#5E5D60"/>
<path d="M74.8362 53.3773C71.9203 50.4614 68.0921 49.0008 64.2616 48.9944C68.3839 35.1712 57.953 21.3574 43.6605 21.3574C31.8085 21.3574 22.1665 31.0006 22.1665 42.8537C22.1665 49.6596 25.4125 56.0808 30.871 60.1293V60.1381C36.7415 64.2944 43.233 65.2312 49.262 63.6048C49.0536 72.0666 55.8239 78.9605 64.2364 78.9605C77.5162 78.9605 84.2723 62.8134 74.8362 53.3773ZM23.979 42.8537C23.979 32 32.8081 23.1699 43.6605 23.1699C57.058 23.1699 66.6106 36.3663 62.3215 49.1193C59.6388 49.4618 57.0322 50.5251 54.8198 52.314C53.3152 49.6322 50.8461 47.5213 47.8727 46.4873C50.495 45.0101 52.2708 42.2005 52.2708 38.9824C52.2708 34.2352 48.4086 30.373 43.6614 30.373C38.9142 30.373 35.052 34.2352 35.052 38.9824C35.052 42.2034 36.8312 45.0155 39.4575 46.4916C34.6857 48.1575 31.1939 52.5741 30.8939 57.8342C26.5349 54.1122 23.979 48.634 23.979 42.8537ZM43.6763 45.779C39.9233 45.7874 36.8643 42.737 36.8643 38.9826C36.8643 35.2348 39.9134 32.1857 43.6612 32.1857C47.409 32.1857 50.458 35.2348 50.458 38.9826C50.458 42.7252 47.4173 45.7707 43.6763 45.779ZM32.6835 59.1895C32.6835 46.56 48.3333 43.5805 53.4419 53.5823C51.2259 55.8826 49.8889 58.7198 49.4331 61.6704C43.89 63.3716 37.7134 62.5773 32.6835 59.1895ZM73.5547 73.2953C68.4167 78.4333 60.0566 78.4335 54.9181 73.2953C46.6325 65.0094 52.5522 50.8053 64.2364 50.8053C75.9185 50.8053 81.8449 65.0047 73.5547 73.2953Z" fill="#5E5D60"/>
<path d="M70.6023 60.3521H67.8616V57.6113C67.8616 55.6126 66.2353 53.9863 64.2366 53.9863C62.2378 53.9863 60.6116 55.6126 60.6116 57.6113V60.3521H57.8706C55.8719 60.3521 54.2456 61.9783 54.2456 63.9771C54.2456 65.9758 55.8719 67.602 57.8706 67.602H60.6116V70.3428C60.6116 72.3415 62.2378 73.9678 64.2366 73.9678C66.2353 73.9678 67.8616 72.3415 67.8616 70.3428V67.602H70.6023C72.601 67.602 74.2273 65.9758 74.2273 63.9771C74.2273 61.9783 72.6012 60.3521 70.6023 60.3521ZM70.6023 65.7895H66.9553C66.4548 65.7895 66.0491 66.1953 66.0491 66.6958V70.3428C66.0491 71.3421 65.2359 72.1553 64.2366 72.1553C63.2372 72.1553 62.4241 71.3421 62.4241 70.3428V66.6958C62.4241 66.1953 62.0183 65.7895 61.5178 65.7895H57.8706C56.8712 65.7895 56.0581 64.9764 56.0581 63.9771C56.0581 62.9777 56.8712 62.1646 57.8706 62.1646H61.5178C62.0183 62.1646 62.4241 61.7588 62.4241 61.2583V57.6113C62.4241 56.612 63.2372 55.7988 64.2366 55.7988C65.2359 55.7988 66.0491 56.612 66.0491 57.6113V61.2583C66.0491 61.7588 66.4548 62.1646 66.9553 62.1646H70.6023C71.6016 62.1646 72.4148 62.9777 72.4148 63.9771C72.4148 64.9764 71.6019 65.7895 70.6023 65.7895Z" fill="#5E5D60"/>
<path d="M30.7039 31.3855C30.4179 31.7083 30.1409 32.0457 29.8805 32.3882C29.4249 32.9875 29.8592 33.843 30.6012 33.843C31.1982 33.843 31.282 33.4665 32.0607 32.5872C32.3924 32.2127 32.3578 31.6397 31.983 31.308C31.6087 30.9761 31.0358 31.0107 30.7039 31.3855Z" fill="#5E5D60"/>
<path d="M29.2268 35.0173C28.7749 34.8029 28.234 34.9955 28.0197 35.4477C27.1968 37.183 26.673 39.0324 26.463 40.9446C26.4084 41.4421 26.7673 41.8896 27.265 41.9444C27.7666 41.9988 28.2105 41.6367 28.2649 41.1424C28.4529 39.4314 28.9212 37.7768 29.6575 36.2242C29.8719 35.7722 29.6791 35.2318 29.2268 35.0173Z" fill="#5E5D60"/>
</g>
<defs>
<clipPath id="clip0_586_1553">
<rect width="58" height="58" fill="white" transform="translate(21.7021 21.1582)"/>
</clipPath>
</defs>
</svg>
