<svg width="79" height="80" viewBox="0 0 79 80" fill="none" xmlns="http://www.w3.org/2000/svg">
<g clip-path="url(#clip0_622_523)">
<path d="M68.0163 28.9193L31.6525 65.7499C30.0089 67.4141 27.3446 67.4141 25.7016 65.7499L4.3026 44.0766C2.65955 42.4119 2.65955 39.7135 4.3026 38.0494L40.6664 1.21879C42.31 -0.445327 44.9743 -0.445327 46.6173 1.21879L68.0163 22.8921C69.66 24.5562 69.66 27.2552 68.0163 28.9193Z" fill="#8CBAFA"/>
<path d="M68.0165 22.8925L65.3463 20.1875C66.8097 21.6696 66.6633 24.2203 65.0202 25.8844L28.6558 62.715C27.0128 64.3797 24.4943 64.5274 23.031 63.0453L25.7018 65.7503C27.3448 67.4145 30.0091 67.4145 31.6527 65.7503L68.0165 28.9197C69.6602 27.2556 69.6602 24.5566 68.0165 22.8925Z" fill="#5692D8"/>
<path d="M11.295 42.5619C11.0022 42.5619 10.71 42.4486 10.4868 42.2226C10.0405 41.7705 10.0405 41.0382 10.4868 40.5862L28.2986 22.5461C28.7449 22.094 29.4685 22.094 29.9143 22.5461C30.3606 22.9981 30.3606 23.731 29.9143 24.1825L12.1025 42.2232C11.8794 42.4486 11.5872 42.5619 11.295 42.5619Z" fill="#252D4C"/>
<path d="M16.9556 48.2943C16.6628 48.2943 16.3706 48.181 16.1475 47.955C15.7012 47.5029 15.7012 46.7706 16.1475 46.3186L33.9592 28.2785C34.4056 27.8264 35.1292 27.8264 35.5749 28.2785C36.0212 28.7305 36.0212 29.4634 35.5749 29.9149L17.7632 47.955C17.54 48.181 17.2478 48.2943 16.9556 48.2943Z" fill="#252D4C"/>
<path d="M40.0726 9.61294L36.5091 13.2214C35.1083 14.6402 35.1083 16.9402 36.5091 18.3591C37.91 19.7779 40.1815 19.7779 41.5823 18.3591L45.1451 14.7505C46.546 13.3317 46.546 11.0317 45.1451 9.61294C43.7443 8.19413 41.4728 8.19413 40.0726 9.61294Z" fill="#FFCD34"/>
<path d="M71.4501 39.7969H20.0233C17.6995 39.7969 15.8154 41.7051 15.8154 44.0587V74.7096C15.8154 77.0632 17.6995 78.9715 20.0233 78.9715H71.4501C73.7746 78.9715 75.658 77.0632 75.658 74.7096V44.0587C75.6586 41.7051 73.7746 39.7969 71.4501 39.7969Z" fill="#FFCD34"/>
<path d="M71.4502 39.7969H67.6838C70.0077 39.7969 71.8917 41.7051 71.8917 44.0587V74.7096C71.8917 77.0632 70.0077 78.9715 67.6838 78.9715H71.4502C73.7746 78.9715 75.6581 77.0632 75.6581 74.7096V44.0587C75.6587 41.7051 73.7746 39.7969 71.4502 39.7969Z" fill="#E69012"/>
<path d="M15.8154 49.4258H75.6586V56.7893H15.8154V49.4258Z" fill="#575B7A"/>
<path d="M71.8916 49.4258H75.658V56.7893H71.8916V49.4258Z" fill="#252D4C"/>
<path d="M60.9502 68.5538V73.0954C60.9502 73.4467 61.2311 73.7312 61.578 73.7312H68.7102C69.0572 73.7312 69.338 73.4467 69.338 73.0954V68.5538C69.338 68.2025 69.0572 67.918 68.7102 67.918H61.578C61.2311 67.918 60.9502 68.2025 60.9502 68.5538Z" fill="#E9E9EA"/>
<path d="M39.446 68.5538V73.0954C39.446 73.4467 39.7275 73.7312 40.0739 73.7312H55.1595C55.5064 73.7312 55.7873 73.4467 55.7873 73.0954V68.5538C55.7873 68.2025 55.5064 67.918 55.1595 67.918H40.0739C39.7275 67.918 39.446 68.2025 39.446 68.5538Z" fill="#E9E9EA"/>
<path d="M33.2969 74.8887H25.7815C25.1501 74.8887 24.6389 74.3703 24.6389 73.7314C24.6389 73.092 25.1501 72.5742 25.7815 72.5742H33.2969C33.9283 72.5742 34.4395 73.092 34.4395 73.7314C34.4395 74.3703 33.9283 74.8887 33.2969 74.8887Z" fill="#252D4C"/>
</g>
<defs>
<clipPath id="clip0_622_523">
<rect width="78" height="79" fill="white" transform="translate(0.328125 0.125)"/>
</clipPath>
</defs>
</svg>
