<svg width="101" height="101" viewBox="0 0 101 101" fill="none" xmlns="http://www.w3.org/2000/svg">
<circle cx="50.7021" cy="50.7051" r="48.5" stroke="#0E6EFF" stroke-width="3"/>
<g clip-path="url(#clip0_586_1571)">
<path d="M63.803 48.7608C63.5347 48.2686 62.9451 47.9551 62.2959 47.9551H55.6709V30.0801C55.6709 29.3211 54.9289 28.7051 54.0146 28.7051H47.3896C46.4754 28.7051 45.7334 29.3211 45.7334 30.0801V47.9551H39.1084C38.4591 47.9551 37.8695 48.2713 37.6012 48.7608C37.3295 49.2531 37.4355 49.8278 37.8629 50.2348L49.4566 61.2348C49.7713 61.5346 50.2251 61.7051 50.7021 61.7051C51.1791 61.7051 51.6329 61.5318 51.9476 61.2348L63.5414 50.2348C63.972 49.8306 64.0714 49.2531 63.803 48.7608Z" fill="#5E5D60"/>
<path d="M68.9209 58.9551V67.2051H32.4834V58.9551H25.8584V69.9551C25.8584 71.4758 27.3424 72.7051 29.1709 72.7051H72.2334C74.0652 72.7051 75.5459 71.4758 75.5459 69.9551V58.9551H68.9209Z" fill="#5E5D60"/>
</g>
<defs>
<clipPath id="clip0_586_1571">
<rect width="53" height="44" fill="white" transform="translate(24.2021 28.7051)"/>
</clipPath>
</defs>
</svg>
