<svg width="101" height="101" viewBox="0 0 101 101" fill="none" xmlns="http://www.w3.org/2000/svg">
<circle cx="50.7021" cy="50.2051" r="48.5" stroke="#0E6EFF" stroke-width="3"/>
<g clip-path="url(#clip0_586_1523)">
<path d="M50.7022 24.2051C47.8303 24.2051 45.5022 26.5332 45.5022 29.4051C45.5022 32.277 47.8303 34.6051 50.7022 34.6051C53.5729 34.6023 55.8994 32.2758 55.9022 29.4051C55.9022 26.5332 53.5741 24.2051 50.7022 24.2051ZM50.7022 32.8717C48.7876 32.8717 47.2355 31.3197 47.2355 29.4051C47.2355 27.4905 48.7876 25.9384 50.7022 25.9384C52.6168 25.9384 54.1689 27.4905 54.1689 29.4051C54.1689 31.3197 52.6168 32.8717 50.7022 32.8717Z" fill="#5E5D60"/>
<path d="M44.1354 39.8059V39.806V45.006C44.1354 45.7608 44.7473 46.3727 45.5021 46.3727H55.9021C56.6569 46.3727 57.2688 45.7608 57.2688 45.006V39.806V39.8059C57.2685 38.1794 56.0112 36.8297 54.3889 36.7142L54.26 36.705L54.1429 36.7594C51.9609 37.7721 49.4435 37.7721 47.2613 36.7594L47.1442 36.705L47.0153 36.7142C45.3929 36.8297 44.1357 38.1795 44.1354 39.8059ZM54.0042 36.0112L54.0818 35.9727H54.1685C56.2847 35.9753 57.9996 37.6904 58.0021 39.8066V45.006C58.0021 46.1658 57.0619 47.106 55.9021 47.106H45.5021C44.3423 47.106 43.4021 46.1658 43.4021 45.006V39.8063C43.4048 37.6902 45.1196 35.9753 47.2357 35.9727H47.3224L47.4 36.0112C47.4 36.0113 47.4 36.0113 47.4001 36.0113C49.4797 37.0467 51.9246 37.0467 54.0042 36.0112Z" fill="#5E5D60" stroke="#5E5D60"/>
<path d="M68.9021 52.8047C66.0302 52.8047 63.7021 55.1328 63.7021 58.0047C63.7021 60.8766 66.0302 63.2047 68.9021 63.2047C71.7741 63.2047 74.1021 60.8766 74.1021 58.0047C74.0993 55.134 71.7729 52.8075 68.9021 52.8047ZM68.9021 61.4714C66.9876 61.4714 65.4355 59.9193 65.4355 58.0047C65.4355 56.0901 66.9876 54.538 68.9021 54.538C70.8167 54.538 72.3688 56.0901 72.3688 58.0047C72.3688 59.9193 70.8167 61.4714 68.9021 61.4714Z" fill="#5E5D60"/>
<path d="M72.3687 64.0723H72.1642L71.9813 64.1589C70.042 65.1244 67.7621 65.1244 65.8228 64.1589L65.6399 64.0723H65.4354C63.0434 64.0751 61.1049 66.0136 61.1021 68.4056V73.6056C61.1021 75.0416 62.2661 76.2056 63.7021 76.2056H74.1021C75.538 76.2056 76.7021 75.0416 76.7021 73.6056V68.4056C76.6992 66.0136 74.7607 64.0751 72.3687 64.0723ZM74.9687 73.6056C74.9687 74.0842 74.5807 74.4723 74.1021 74.4723H63.7021C63.2234 74.4723 62.8354 74.0842 62.8354 73.6056V68.4056C62.8356 67.0415 63.89 65.9094 65.2508 65.8125C67.5664 66.8872 70.2377 66.8872 72.5533 65.8125C73.9141 65.9094 74.9685 67.0415 74.9687 68.4056V73.6056Z" fill="#5E5D60"/>
<path d="M32.5022 52.8047C29.6303 52.8047 27.3022 55.1328 27.3022 58.0047C27.3022 60.8766 29.6303 63.2047 32.5022 63.2047C35.3742 63.2047 37.7022 60.8766 37.7022 58.0047C37.6994 55.134 35.373 52.8075 32.5022 52.8047ZM32.5022 61.4714C30.5877 61.4714 29.0356 59.9193 29.0356 58.0047C29.0356 56.0901 30.5877 54.538 32.5022 54.538C34.4168 54.538 35.9689 56.0901 35.9689 58.0047C35.9689 59.9193 34.4168 61.4714 32.5022 61.4714Z" fill="#5E5D60"/>
<path d="M35.9688 64.0723H35.7643L35.5814 64.1589C33.6421 65.1244 31.3622 65.1244 29.4229 64.1589L29.24 64.0723H29.0355C26.6435 64.0751 24.705 66.0136 24.7021 68.4056V73.6056C24.7021 75.0416 25.8662 76.2056 27.3021 76.2056H37.7021C39.1381 76.2056 40.3021 75.0416 40.3021 73.6056V68.4056C40.2993 66.0136 38.3608 64.0751 35.9688 64.0723ZM38.5688 73.6056C38.5688 74.0842 38.1808 74.4723 37.7021 74.4723H27.3021C26.8235 74.4723 26.4355 74.0842 26.4355 73.6056V68.4056C26.4357 67.0415 27.4901 65.9094 28.8509 65.8125C31.1665 66.8872 33.8378 66.8872 36.1534 65.8125C37.5142 65.9094 38.5686 67.0415 38.5688 68.4056V73.6056Z" fill="#5E5D60"/>
<path d="M59.3007 68.2189C59.3003 68.218 59.2998 68.217 59.2994 68.2159C59.1118 67.7755 58.6027 67.5707 58.1625 67.7583C54.2489 69.3985 49.9026 69.6977 45.8012 68.6094L46.6124 68.371C47.0719 68.2365 47.3354 67.7551 47.2009 67.2955C47.0663 66.8359 46.5849 66.5725 46.1253 66.707L42.6587 67.7236C42.6457 67.7236 42.6361 67.7384 42.624 67.7427C42.5437 67.7726 42.4683 67.8144 42.4004 67.8666C42.3703 67.8829 42.3413 67.9011 42.3137 67.9212C42.2223 68.0028 42.1498 68.1033 42.1014 68.2159C42.0544 68.3292 42.032 68.4512 42.0355 68.5738C42.0567 68.6912 42.0856 68.807 42.1222 68.9205C42.1274 68.9326 42.1222 68.9465 42.1317 68.9586L43.8651 72.2754C44.0867 72.6999 44.6105 72.8645 45.0351 72.6428C45.4596 72.4212 45.6242 71.8974 45.4025 71.4728L44.6971 70.1243C49.3569 71.5251 54.3598 71.2528 58.8402 69.3547C59.2809 69.1683 59.4872 68.6597 59.3007 68.2189Z" fill="#5E5D60"/>
<path d="M73.8482 46.9915C73.5098 46.6532 72.9612 46.6532 72.6228 46.9915L71.3964 48.2179C70.6788 40.627 65.8594 34.0396 58.8419 31.0579C58.4015 30.8702 57.8925 31.0751 57.7048 31.5155C57.5172 31.9558 57.7221 32.4649 58.1624 32.6525C64.4577 35.328 68.8337 41.175 69.6258 47.9691L68.6482 46.9915C68.304 46.659 67.7554 46.6685 67.4228 47.0128C67.0984 47.3486 67.0984 47.8811 67.4228 48.217L70.0228 50.817C70.3608 51.1559 70.9096 51.1566 71.2485 50.8185C71.249 50.818 71.2495 50.8174 71.25 50.817L73.85 48.217C74.1879 47.8781 74.1871 47.3295 73.8482 46.9915Z" fill="#5E5D60"/>
<path d="M43.7436 31.7098C43.7408 31.6592 43.7333 31.6091 43.7211 31.5599C43.7211 31.5521 43.7116 31.5469 43.7081 31.5382C43.7046 31.5296 43.7081 31.5235 43.7081 31.5166C43.6845 31.4744 43.6572 31.4343 43.6266 31.397C43.5986 31.3461 43.5654 31.2983 43.5278 31.254C43.4766 31.2086 43.4198 31.1699 43.3588 31.1387C43.3284 31.1128 43.2959 31.0893 43.2618 31.0685L39.7951 29.4851C39.3523 29.3033 38.846 29.5149 38.6642 29.9576C38.4923 30.3763 38.6716 30.8569 39.0758 31.0607L40.8706 31.8814C34.1136 35.4977 29.8972 42.5414 29.9021 50.2054C29.9021 50.684 30.2902 51.072 30.7688 51.072C31.2474 51.072 31.6354 50.684 31.6354 50.2054C31.6311 43.4569 35.1997 37.2106 41.0154 33.7872L40.3888 35.0968C40.1822 35.5276 40.3632 36.0443 40.7935 36.252C40.9104 36.3091 41.0387 36.3388 41.1688 36.3387C41.5016 36.3383 41.8047 36.1473 41.9488 35.8473L43.6821 32.2307C43.6821 32.222 43.6821 32.2125 43.689 32.2038C43.7116 32.1446 43.7273 32.0829 43.7358 32.0201C43.7507 31.9734 43.7617 31.9256 43.7688 31.8771C43.7658 31.8206 43.7575 31.7646 43.7436 31.7098Z" fill="#5E5D60"/>
</g>
<defs>
<clipPath id="clip0_586_1523">
<rect width="52" height="52" fill="white" transform="translate(24.7021 24.2051)"/>
</clipPath>
</defs>
</svg>
