<svg width="66" height="66" viewBox="0 0 66 66" fill="none" xmlns="http://www.w3.org/2000/svg">
<g clip-path="url(#clip0_622_542)">
<path d="M60.5654 4.88404C54.6158 -1.06549 44.9702 -1.06549 39.0207 4.88391L26.288 17.6165C20.134 23.7709 20.7037 33.5767 26.288 39.1613C27.2231 40.0964 28.2578 40.8589 29.3504 41.4851L31.6743 39.1613C33.1985 37.6368 32.6619 35.8548 32.6345 34.5689C32.3 34.3317 31.9746 34.0754 31.6743 33.775C28.8085 30.9096 28.6797 25.9972 31.6743 23.0027C32.119 22.5579 44.1367 10.5402 44.4066 10.2703C47.3772 7.2997 52.2084 7.2997 55.179 10.2703C58.1496 13.2409 58.1496 18.0721 55.179 21.0426L46.7629 29.4587C47.0063 30.8053 48.4669 33.9952 47.7155 39.2571C47.7522 39.2211 47.7962 39.1978 47.8327 39.1614L60.5654 26.4287C66.5146 20.4792 66.5146 10.8336 60.5654 4.88404Z" fill="#FF0000"/>
<path d="M39.7532 25.695C38.8182 24.7598 37.7834 23.9974 36.6911 23.3711L34.3672 25.695C32.8428 27.2192 33.3793 29.0012 33.4067 30.2871C33.7415 30.5243 34.0668 30.7806 34.3672 31.081C37.2329 33.9467 37.3618 38.8587 34.3672 41.8533C33.9215 42.299 20.9083 55.3122 20.6479 55.5726C17.6773 58.5432 12.8461 58.5432 9.87554 55.5726C6.90497 52.602 6.90497 47.7708 9.87554 44.8003L19.2786 35.3972C19.0352 34.0506 17.5745 30.8608 18.3259 25.5989C18.2892 25.6349 18.2451 25.6584 18.2085 25.6948L4.4893 39.4143C-1.45998 45.3638 -1.45998 55.0095 4.4893 60.959C10.4388 66.9083 20.0844 66.9083 26.0339 60.959L39.7532 47.2397C45.7931 41.1998 45.4631 31.4047 39.7532 25.695Z" fill="#0E6EFF"/>
</g>
<defs>
<clipPath id="clip0_622_542">
<rect width="65" height="65" fill="white" transform="translate(0.0273438 0.421875)"/>
</clipPath>
</defs>
</svg>
