<svg width="220" height="107" viewBox="0 0 220 107" fill="none" xmlns="http://www.w3.org/2000/svg">
<g filter="url(#filter0_d_507_1380)">
<rect x="18" y="16" width="184" height="70.306" rx="10" fill="white"/>
<g filter="url(#filter1_ii_507_1380)">
<path d="M46.7524 40.4242C46.5018 40.6893 46.3538 41.1008 46.3538 41.6337V60.6732C46.3538 61.207 46.5018 61.6176 46.7524 61.8828L46.8161 61.9448L57.4817 51.2792V51.1535V51.0278L46.8161 40.3613L46.7524 40.4242Z" fill="url(#paint0_linear_507_1380)"/>
<path d="M61.0363 54.8359L57.4817 51.2795V51.1538V51.0281L61.0372 47.4727L61.1172 47.5183L65.3296 49.9116C66.5323 50.5951 66.5323 51.7134 65.3296 52.3978L61.1172 54.7911L61.0363 54.8359Z" fill="url(#paint1_linear_507_1380)"/>
<g filter="url(#filter2_i_507_1380)">
<path d="M61.1173 54.7888L57.4809 51.1523L46.7524 61.8816C47.1485 62.3018 47.8036 62.3534 48.5414 61.935L61.1173 54.7888Z" fill="url(#paint2_linear_507_1380)"/>
</g>
<path d="M61.1173 47.5168L48.5414 40.3714C47.8036 39.9521 47.1485 40.0046 46.7524 40.4247L57.4817 51.154L61.1173 47.5168Z" fill="url(#paint3_linear_507_1380)"/>
</g>
<path d="M109.406 52.5787C106.787 52.5787 104.652 54.5711 104.652 57.3152C104.652 60.0427 106.787 62.0518 109.406 62.0518C112.027 62.0518 114.162 60.0427 114.162 57.3152C114.161 54.5711 112.026 52.5787 109.406 52.5787ZM109.406 60.1874C107.971 60.1874 106.733 59.0036 106.733 57.3163C106.733 55.6113 107.972 54.4452 109.406 54.4452C110.842 54.4452 112.079 55.6113 112.079 57.3163C112.079 59.0025 110.842 60.1874 109.406 60.1874ZM99.0332 52.5787C96.4138 52.5787 94.2788 54.5711 94.2788 57.3152C94.2788 60.0427 96.4138 62.0518 99.0332 62.0518C101.654 62.0518 103.789 60.0427 103.789 57.3152C103.789 54.5711 101.654 52.5787 99.0332 52.5787ZM99.0332 60.1874C97.5977 60.1874 96.3603 59.0036 96.3603 57.3163C96.3603 55.6113 97.5988 54.4452 99.0332 54.4452C100.469 54.4452 101.706 55.6113 101.706 57.3163C101.707 59.0025 100.469 60.1874 99.0332 60.1874ZM86.6957 54.0332V56.0423H91.5046C91.361 57.1727 90.9845 57.9979 90.4099 58.5715C89.7105 59.2709 88.6157 60.0427 86.6957 60.0427C83.7355 60.0427 81.4212 57.656 81.4212 54.6958C81.4212 51.7356 83.7355 49.349 86.6957 49.349C88.2927 49.349 89.4588 49.9771 90.3196 50.7845L91.7374 49.3668C90.5346 48.2186 88.9387 47.3398 86.6957 47.3398C82.6407 47.3398 79.2317 50.6408 79.2317 54.6958C79.2317 58.7508 82.6407 62.0518 86.6957 62.0518C88.8841 62.0518 90.5357 61.3334 91.8265 59.9881C93.154 58.6606 93.5672 56.794 93.5672 55.2872C93.5672 54.8217 93.5315 54.3907 93.4592 54.032H86.6957V54.0332ZM137.155 55.5934C136.761 54.5354 135.558 52.5787 133.1 52.5787C130.66 52.5787 128.632 54.4987 128.632 57.3152C128.632 59.9703 130.642 62.0518 133.333 62.0518C135.503 62.0518 136.76 60.7242 137.281 59.9525L135.666 58.8755C135.128 59.6651 134.392 60.1852 133.333 60.1852C132.275 60.1852 131.521 59.7008 131.036 58.7497L137.37 56.1302L137.155 55.5934ZM130.696 57.1727C130.642 55.3417 132.113 54.4096 133.172 54.4096C133.998 54.4096 134.697 54.8228 134.931 55.4141L130.696 57.1727ZM125.547 61.7655H127.627V47.8432H125.547V61.7655ZM122.137 53.6378H122.066C121.599 53.0809 120.701 52.5787 119.572 52.5787C117.203 52.5787 115.033 54.6602 115.033 57.3342C115.033 59.9892 117.203 62.0529 119.572 62.0529C120.702 62.0529 121.599 61.5506 122.066 60.9771H122.137V61.6586C122.137 63.4706 121.168 64.4395 119.608 64.4395C118.334 64.4395 117.544 63.5252 117.221 62.7534L115.409 63.5074C115.929 64.7625 117.31 66.3061 119.608 66.3061C122.048 66.3061 124.111 64.8705 124.111 61.3713V52.8671H122.138V53.6378H122.137ZM119.751 60.1874C118.316 60.1874 117.114 58.9846 117.114 57.3342C117.114 55.6647 118.316 54.4452 119.751 54.4452C121.168 54.4452 122.28 55.6647 122.28 57.3342C122.28 58.9846 121.168 60.1874 119.751 60.1874ZM146.904 47.8432H141.925V61.7655H144.002V56.4911H146.903C149.206 56.4911 151.472 54.8239 151.472 52.1677C151.472 49.5116 149.207 47.8432 146.904 47.8432ZM146.958 54.5533H144.002V49.7811H146.958C148.511 49.7811 149.393 51.0674 149.393 52.1677C149.393 53.2458 148.511 54.5533 146.958 54.5533ZM159.801 52.5542C158.296 52.5542 156.738 53.2168 156.093 54.6858L157.938 55.4553C158.332 54.6858 159.067 54.4341 159.837 54.4341C160.911 54.4341 162.004 55.0789 162.022 56.2249V56.3686C161.645 56.1536 160.839 55.8318 159.854 55.8318C157.866 55.8318 155.842 56.9243 155.842 58.9657C155.842 60.8289 157.472 62.0284 159.299 62.0284C160.695 62.0284 161.466 61.4014 161.949 60.6663H162.021V61.741H164.027V56.4031C164.029 53.9329 162.182 52.5542 159.801 52.5542ZM159.549 60.1841C158.87 60.1841 157.92 59.8433 157.92 59.0014C157.92 57.9266 159.103 57.5146 160.124 57.5146C161.036 57.5146 161.467 57.7117 162.022 57.9801C161.86 59.2709 160.75 60.1841 159.549 60.1841ZM171.335 52.8582L168.953 58.8944H168.882L166.41 52.8582H164.171L167.879 61.2945L165.765 65.9876H167.932L173.646 52.8582H171.335ZM152.619 61.7655H154.696V47.8432H152.619V61.7655Z" fill="#1F2124"/>
<path d="M86.3328 39.762C86.3328 40.6953 86.0566 41.4381 85.5031 41.9927C84.875 42.6521 84.0553 42.9817 83.0485 42.9817C82.0841 42.9817 81.2633 42.6476 80.5895 41.9794C79.9146 41.3101 79.5771 40.4815 79.5771 39.4925C79.5771 38.5024 79.9146 37.6738 80.5895 37.0056C81.2633 36.3363 82.0841 36.0022 83.0485 36.0022C83.5274 36.0022 83.9852 36.0957 84.4195 36.2817C84.855 36.4688 85.2035 36.7172 85.4641 37.0279L84.8772 37.6159C84.4351 37.0869 83.8259 36.823 83.0474 36.823C82.3436 36.823 81.7355 37.0702 81.2221 37.5647C80.7087 38.0592 80.4525 38.7018 80.4525 39.4914C80.4525 40.281 80.7087 40.9236 81.2221 41.4181C81.7355 41.9126 82.3436 42.1598 83.0474 42.1598C83.7936 42.1598 84.4162 41.9114 84.914 41.4136C85.237 41.0895 85.4241 40.6385 85.4742 40.0605H83.0474V39.2575H86.2849C86.3183 39.4324 86.3328 39.6005 86.3328 39.762Z" fill="#1F2124"/>
<path d="M91.4671 36.9712H88.4245V39.0894H91.1686V39.8924H88.4245V42.0106H91.4671V42.8325H87.5658V36.1504H91.4671V36.9712Z" fill="#1F2124"/>
<path d="M95.0876 42.8325H94.2289V36.9712H92.3624V36.1504H96.9541V36.9712H95.0876V42.8325Z" fill="#1F2124"/>
<path d="M100.276 42.8325V36.1504H101.135V42.8325H100.276Z" fill="#1F2124"/>
<path d="M104.943 42.8325H104.084V36.9712H102.218V36.1504H106.809V36.9712H104.943V42.8325Z" fill="#1F2124"/>
<path d="M115.502 41.9694C114.844 42.6443 114.028 42.9818 113.051 42.9818C112.075 42.9818 111.258 42.6443 110.602 41.9694C109.945 41.2945 109.618 40.4681 109.618 39.4914C109.618 38.5147 109.945 37.6884 110.602 37.0135C111.258 36.3386 112.075 36 113.051 36C114.023 36 114.838 36.3397 115.497 37.0179C116.156 37.6962 116.486 38.5203 116.486 39.4914C116.486 40.4681 116.157 41.2945 115.502 41.9694ZM111.236 41.4092C111.731 41.9104 112.335 42.1599 113.051 42.1599C113.767 42.1599 114.373 41.9093 114.867 41.4092C115.361 40.9081 115.61 40.2688 115.61 39.4914C115.61 38.7141 115.361 38.0748 114.867 37.5737C114.373 37.0725 113.767 36.823 113.051 36.823C112.335 36.823 111.731 37.0736 111.236 37.5737C110.743 38.0748 110.494 38.7141 110.494 39.4914C110.494 40.2688 110.743 40.9081 111.236 41.4092Z" fill="#1F2124"/>
<path d="M117.691 42.8325V36.1504H118.736L121.983 41.348H122.02L121.983 40.0605V36.1504H122.842V42.8325H121.945L118.547 37.3821H118.511L118.547 38.6695V42.8325H117.691Z" fill="#1F2124"/>
<path d="M86.3328 39.762C86.3328 40.6953 86.0566 41.4381 85.5031 41.9927C84.875 42.6521 84.0553 42.9817 83.0485 42.9817C82.0841 42.9817 81.2633 42.6476 80.5895 41.9794C79.9146 41.3101 79.5771 40.4815 79.5771 39.4925C79.5771 38.5024 79.9146 37.6738 80.5895 37.0056C81.2633 36.3363 82.0841 36.0022 83.0485 36.0022C83.5274 36.0022 83.9852 36.0957 84.4195 36.2817C84.855 36.4688 85.2035 36.7172 85.4641 37.0279L84.8772 37.6159C84.4351 37.0869 83.8259 36.823 83.0474 36.823C82.3436 36.823 81.7355 37.0702 81.2221 37.5647C80.7087 38.0592 80.4525 38.7018 80.4525 39.4914C80.4525 40.281 80.7087 40.9236 81.2221 41.4181C81.7355 41.9126 82.3436 42.1598 83.0474 42.1598C83.7936 42.1598 84.4162 41.9114 84.914 41.4136C85.237 41.0895 85.4241 40.6385 85.4742 40.0605H83.0474V39.2575H86.2849C86.3183 39.4324 86.3328 39.6005 86.3328 39.762Z" stroke="#1F2124" stroke-width="0.222739" stroke-miterlimit="10"/>
<path d="M91.4671 36.9712H88.4245V39.0894H91.1686V39.8924H88.4245V42.0106H91.4671V42.8325H87.5658V36.1504H91.4671V36.9712Z" stroke="#1F2124" stroke-width="0.222739" stroke-miterlimit="10"/>
<path d="M95.0876 42.8325H94.2289V36.9712H92.3624V36.1504H96.9541V36.9712H95.0876V42.8325Z" stroke="#1F2124" stroke-width="0.222739" stroke-miterlimit="10"/>
<path d="M100.276 42.8325V36.1504H101.135V42.8325H100.276Z" stroke="#1F2124" stroke-width="0.222739" stroke-miterlimit="10"/>
<path d="M104.943 42.8325H104.084V36.9712H102.218V36.1504H106.809V36.9712H104.943V42.8325Z" stroke="#1F2124" stroke-width="0.222739" stroke-miterlimit="10"/>
<path d="M115.502 41.9694C114.844 42.6443 114.028 42.9818 113.051 42.9818C112.075 42.9818 111.258 42.6443 110.602 41.9694C109.945 41.2945 109.618 40.4681 109.618 39.4914C109.618 38.5147 109.945 37.6884 110.602 37.0135C111.258 36.3386 112.075 36 113.051 36C114.023 36 114.838 36.3397 115.497 37.0179C116.156 37.6962 116.486 38.5203 116.486 39.4914C116.486 40.4681 116.157 41.2945 115.502 41.9694ZM111.236 41.4092C111.731 41.9104 112.335 42.1599 113.051 42.1599C113.767 42.1599 114.373 41.9093 114.867 41.4092C115.361 40.9081 115.61 40.2688 115.61 39.4914C115.61 38.7141 115.361 38.0748 114.867 37.5737C114.373 37.0725 113.767 36.823 113.051 36.823C112.335 36.823 111.731 37.0736 111.236 37.5737C110.743 38.0748 110.494 38.7141 110.494 39.4914C110.494 40.2688 110.743 40.9081 111.236 41.4092Z" stroke="#1F2124" stroke-width="0.222739" stroke-miterlimit="10"/>
<path d="M117.691 42.8325V36.1504H118.736L121.983 41.348H122.02L121.983 40.0605V36.1504H122.842V42.8325H121.945L118.547 37.3821H118.511L118.547 38.6695V42.8325H117.691Z" stroke="#1F2124" stroke-width="0.222739" stroke-miterlimit="10"/>
</g>
<defs>
<filter id="filter0_d_507_1380" x="0" y="0" width="220" height="106.307" filterUnits="userSpaceOnUse" color-interpolation-filters="sRGB">
<feFlood flood-opacity="0" result="BackgroundImageFix"/>
<feColorMatrix in="SourceAlpha" type="matrix" values="0 0 0 0 0 0 0 0 0 0 0 0 0 0 0 0 0 0 127 0" result="hardAlpha"/>
<feMorphology radius="1" operator="erode" in="SourceAlpha" result="effect1_dropShadow_507_1380"/>
<feOffset dy="2"/>
<feGaussianBlur stdDeviation="9.5"/>
<feComposite in2="hardAlpha" operator="out"/>
<feColorMatrix type="matrix" values="0 0 0 0 0.774884 0 0 0 0 0.774884 0 0 0 0 0.774884 0 0 0 0.3 0"/>
<feBlend mode="normal" in2="BackgroundImageFix" result="effect1_dropShadow_507_1380"/>
<feBlend mode="normal" in="SourceGraphic" in2="effect1_dropShadow_507_1380" result="shape"/>
</filter>
<filter id="filter1_ii_507_1380" x="46.3538" y="40.082" width="19.8779" height="22.1426" filterUnits="userSpaceOnUse" color-interpolation-filters="sRGB">
<feFlood flood-opacity="0" result="BackgroundImageFix"/>
<feBlend mode="normal" in="SourceGraphic" in2="BackgroundImageFix" result="shape"/>
<feColorMatrix in="SourceAlpha" type="matrix" values="0 0 0 0 0 0 0 0 0 0 0 0 0 0 0 0 0 0 127 0" result="hardAlpha"/>
<feOffset dy="-0.198421"/>
<feComposite in2="hardAlpha" operator="arithmetic" k2="-1" k3="1"/>
<feColorMatrix type="matrix" values="0 0 0 0 0 0 0 0 0 0 0 0 0 0 0 0 0 0 0.12 0"/>
<feBlend mode="normal" in2="shape" result="effect1_innerShadow_507_1380"/>
<feColorMatrix in="SourceAlpha" type="matrix" values="0 0 0 0 0 0 0 0 0 0 0 0 0 0 0 0 0 0 127 0" result="hardAlpha"/>
<feOffset dy="0.198421"/>
<feComposite in2="hardAlpha" operator="arithmetic" k2="-1" k3="1"/>
<feColorMatrix type="matrix" values="0 0 0 0 1 0 0 0 0 1 0 0 0 0 1 0 0 0 0.25 0"/>
<feBlend mode="normal" in2="effect1_innerShadow_507_1380" result="effect2_innerShadow_507_1380"/>
</filter>
<filter id="filter2_i_507_1380" x="46.7524" y="51.1523" width="14.3647" height="11.0723" filterUnits="userSpaceOnUse" color-interpolation-filters="sRGB">
<feFlood flood-opacity="0" result="BackgroundImageFix"/>
<feBlend mode="normal" in="SourceGraphic" in2="BackgroundImageFix" result="shape"/>
<feColorMatrix in="SourceAlpha" type="matrix" values="0 0 0 0 0 0 0 0 0 0 0 0 0 0 0 0 0 0 127 0" result="hardAlpha"/>
<feOffset dy="-0.198421"/>
<feComposite in2="hardAlpha" operator="arithmetic" k2="-1" k3="1"/>
<feColorMatrix type="matrix" values="0 0 0 0 0 0 0 0 0 0 0 0 0 0 0 0 0 0 0.08 0"/>
<feBlend mode="normal" in2="shape" result="effect1_innerShadow_507_1380"/>
</filter>
<linearGradient id="paint0_linear_507_1380" x1="56.5362" y1="41.4323" x2="42.0887" y2="55.8798" gradientUnits="userSpaceOnUse">
<stop stop-color="#00A0FF"/>
<stop offset="0.0066" stop-color="#00A1FF"/>
<stop offset="0.2601" stop-color="#00BEFF"/>
<stop offset="0.5122" stop-color="#00D2FF"/>
<stop offset="0.7604" stop-color="#00DFFF"/>
<stop offset="1" stop-color="#00E3FF"/>
</linearGradient>
<linearGradient id="paint1_linear_507_1380" x1="66.8951" y1="51.1538" x2="46.0651" y2="51.1538" gradientUnits="userSpaceOnUse">
<stop stop-color="#FFE000"/>
<stop offset="0.4087" stop-color="#FFBD00"/>
<stop offset="0.7754" stop-color="#FFA500"/>
<stop offset="1" stop-color="#FF9C00"/>
</linearGradient>
<linearGradient id="paint2_linear_507_1380" x1="59.1425" y1="53.1271" x2="39.5499" y2="72.7198" gradientUnits="userSpaceOnUse">
<stop stop-color="#FF3A44"/>
<stop offset="1" stop-color="#C31162"/>
</linearGradient>
<linearGradient id="paint3_linear_507_1380" x1="44.0504" y1="34.0867" x2="52.7991" y2="42.8353" gradientUnits="userSpaceOnUse">
<stop stop-color="#32A071"/>
<stop offset="0.0685" stop-color="#2DA771"/>
<stop offset="0.4762" stop-color="#15CF74"/>
<stop offset="0.8009" stop-color="#06E775"/>
<stop offset="1" stop-color="#00F076"/>
</linearGradient>
</defs>
</svg>
