<svg width="85" height="85" viewBox="0 0 85 85" fill="none" xmlns="http://www.w3.org/2000/svg">
<g clip-path="url(#clip0_622_555)">
<path d="M5.53857 5.45703H20.3042V0.535156H0.616699V20.2227H5.53857V5.45703Z" fill="#0E6EFF"/>
<path d="M64.9292 0.535156V5.45703H79.6948V20.2227H84.6167V0.535156H64.9292Z" fill="#0E6EFF"/>
<path d="M79.6948 79.6133H64.9292V84.5352H84.6167V64.8477H79.6948V79.6133Z" fill="#0E6EFF"/>
<path d="M5.53857 64.8477H0.616699V84.5352H20.3042V79.6133H5.53857V64.8477Z" fill="#0E6EFF"/>
<path d="M10.6245 10.3789V34.9883H35.2339V20.2227H40.1558V15.3008H35.2339V10.3789H10.6245ZM30.312 30.0664H15.5464V15.3008H30.312V30.0664Z" fill="#0E6EFF"/>
<path d="M74.6089 74.3633V49.7539H64.7651V44.832H59.8433V49.7539H45.0776V54.6758H49.9995V59.5977H45.0776V64.5195H49.9995V74.3633H74.6089ZM54.9214 54.6758H69.687V69.4414H54.9214V54.6758Z" fill="#0E6EFF"/>
<path d="M25.3901 44.832H35.2339V39.9102H10.6245V44.832H20.4683V49.7539H15.5464V54.6758H20.4683V64.5195H15.5464V69.4414H20.4683V74.3633H45.0776V69.4414H40.1558V64.5195H35.2339V69.4414H25.3901V64.5195H30.312V59.5977H25.3901V44.832Z" fill="#0E6EFF"/>
<path d="M20.4683 20.2227H25.3901V25.1445H20.4683V20.2227Z" fill="#0E6EFF"/>
<path d="M59.8433 20.2227H64.7651V25.1445H59.8433V20.2227Z" fill="#0E6EFF"/>
<path d="M64.7651 34.9883H74.6089V10.3789H49.9995V34.9883H59.8433V39.9102H64.7651V34.9883ZM54.9214 30.0664V15.3008H69.687V30.0664H54.9214Z" fill="#0E6EFF"/>
<path d="M74.6089 44.832V39.9102C73.4182 39.9102 65.9642 39.9102 64.7651 39.9102V44.832H74.6089Z" fill="#0E6EFF"/>
<path d="M59.8433 59.5977H64.7651V64.5195H59.8433V59.5977Z" fill="#0E6EFF"/>
<path d="M40.1558 54.6758H45.0776V59.5977H40.1558V54.6758Z" fill="#0E6EFF"/>
<path d="M30.312 59.5977H35.2339C35.2339 58.4069 35.2339 50.953 35.2339 49.7539H30.312V59.5977Z" fill="#0E6EFF"/>
<path d="M35.2339 44.832H40.1558V49.7539H35.2339V44.832Z" fill="#0E6EFF"/>
<path d="M15.5464 54.6758H10.6245V64.5195H15.5464C15.5464 63.3288 15.5464 55.8748 15.5464 54.6758Z" fill="#0E6EFF"/>
<path d="M10.6245 69.4414H15.5464V74.3633H10.6245V69.4414Z" fill="#0E6EFF"/>
<path d="M40.1558 10.3789H45.0776V15.3008H40.1558V10.3789Z" fill="#0E6EFF"/>
<path d="M40.1558 30.0664H45.0776C45.0776 28.8757 45.0776 21.4217 45.0776 20.2227H40.1558V30.0664Z" fill="#0E6EFF"/>
<path d="M45.0776 39.9102V34.9883H40.1558V44.832H59.8433V39.9102H45.0776Z" fill="#0E6EFF"/>
</g>
<defs>
<clipPath id="clip0_622_555">
<rect width="84" height="84" fill="white" transform="translate(0.616699 0.535156)"/>
</clipPath>
</defs>
</svg>
