<svg width="90" height="90" viewBox="0 0 90 90" fill="none" xmlns="http://www.w3.org/2000/svg">
<g clip-path="url(#clip0_622_582)">
<path d="M24.0326 77.3103C26.7009 79.9785 31.0323 79.9785 33.7006 77.3103L66.7981 44.2127C67.7484 43.2624 68.4795 42.1293 68.9546 40.9231C72.2808 41.8552 75.5156 42.3486 78.3667 42.3303C85.4211 42.2938 87.7605 39.2052 88.528 37.3593C89.2956 35.5317 89.8439 31.6938 84.8912 26.6497C84.8363 26.5948 84.7815 26.54 84.7267 26.4852C81.6563 23.4149 77.197 20.5821 72.1346 18.4804C71.2026 18.0966 70.2705 17.7493 69.3567 17.4204V17.3656C69.3019 13.3083 66.0305 10.0369 61.9733 9.98212L42.144 9.70798C39.5123 9.67143 36.9902 10.6949 35.1443 12.559L2.02855 45.6565C-0.639724 48.3248 -0.639724 52.6562 2.02855 55.3244L24.0326 77.3103ZM49.5457 21.5507C51.7571 19.3393 55.3391 19.3393 57.5505 21.5507C58.8664 22.8666 59.3964 24.6759 59.1405 26.3755C61.3153 27.9107 63.9105 29.3362 66.6884 30.4876C67.6753 30.8897 68.6257 31.2552 69.5395 31.5659L69.4298 23.5976C69.5943 23.6707 69.7405 23.7255 69.905 23.7986C74.2363 25.608 78.1291 28.0569 80.6329 30.5607C80.6694 30.5973 80.706 30.6338 80.7425 30.6704C83.1184 33.101 83.3743 34.6545 83.1732 35.1297C82.5518 36.61 75.8812 37.9259 65.7564 33.7041C62.7957 32.4614 60.0177 30.9262 57.7698 29.2631C57.6967 29.3545 57.6053 29.4459 57.5322 29.5373C55.3209 31.7486 51.7388 31.7486 49.5274 29.5373C47.3343 27.3442 47.3343 23.7621 49.5457 21.5507Z" fill="#0E6EFF"/>
</g>
<defs>
<clipPath id="clip0_622_582">
<rect width="89" height="89" fill="white" transform="translate(0.0273438 0.00976562)"/>
</clipPath>
</defs>
</svg>
