<svg width="156" height="33" viewBox="0 0 156 33" fill="none" xmlns="http://www.w3.org/2000/svg">
<path d="M51.1207 27.2619C50.1478 27.2619 49.2532 27.079 48.4367 26.7133C47.6202 26.3293 46.9079 25.8082 46.2999 25.1499C45.6919 24.4733 45.2141 23.6779 44.8667 22.7636C44.5366 21.8493 44.3716 20.8527 44.3716 19.7738C44.3716 18.695 44.5453 17.6892 44.8927 16.7566C45.2402 15.8241 45.7179 15.0103 46.326 14.3155C46.934 13.6206 47.6462 13.0812 48.4627 12.6972C49.2966 12.2949 50.1999 12.0938 51.1728 12.0938C52.1109 12.0938 52.9708 12.2766 53.7526 12.6423C54.5343 12.9898 55.2031 13.4926 55.759 14.1509C56.1588 14.5972 56.4784 15.1014 56.7176 15.6633C56.8916 16.0718 56.629 16.5166 56.1984 16.6247L54.7989 16.9761C54.4215 17.0708 54.0392 16.8712 53.8344 16.5404C53.5785 16.1269 53.2646 15.7876 52.8926 15.5224C52.3715 15.1384 51.7808 14.9463 51.1207 14.9463C50.4258 14.9463 49.8004 15.1566 49.2445 15.5772C48.6886 15.9978 48.2456 16.5738 47.9155 17.3052C47.6028 18.0184 47.4465 18.8321 47.4465 19.7464C47.4465 20.6424 47.6028 21.447 47.9155 22.1601C48.2282 22.855 48.6538 23.4036 49.1924 23.8059C49.7483 24.2081 50.391 24.4093 51.1207 24.4093C51.8156 24.4093 52.4496 24.2264 53.0229 23.8607C53.4151 23.598 53.7382 23.2625 53.9922 22.8543C54.2 22.5203 54.5837 22.3116 54.966 22.4047L56.3218 22.7351C56.7553 22.8407 57.0208 23.2872 56.8446 23.6971C56.6017 24.262 56.2746 24.7737 55.8633 25.2322C55.2726 25.8722 54.569 26.375 53.7526 26.7407C52.9361 27.0882 52.0588 27.2619 51.1207 27.2619Z" fill="white"/>
<path d="M65.8082 27.2619C64.8179 27.2619 63.8972 27.079 63.046 26.7133C62.2121 26.3293 61.4825 25.799 60.8571 25.1224C60.2317 24.4276 59.7453 23.623 59.3978 22.7087C59.0504 21.7761 58.8767 20.7613 58.8767 19.6641C58.8767 18.5852 59.0504 17.5887 59.3978 16.6744C59.7453 15.7418 60.2317 14.9372 60.8571 14.2606C61.4999 13.5658 62.2469 13.0355 63.0981 12.6698C63.9667 12.2858 64.9048 12.0938 65.9124 12.0938C66.9026 12.0938 67.8146 12.2858 68.6485 12.6698C69.4997 13.0355 70.2381 13.5658 70.8635 14.2606C71.4889 14.9372 71.9753 15.7326 72.3227 16.6469C72.6702 17.5612 72.8439 18.567 72.8439 19.6641C72.8439 20.7613 72.6702 21.7761 72.3227 22.7087C71.9753 23.623 71.4802 24.4276 70.8374 25.1224C70.212 25.799 69.465 26.3293 68.5964 26.7133C67.7451 27.079 66.8157 27.2619 65.8082 27.2619ZM65.8603 24.4093C66.6073 24.4093 67.2761 24.2081 67.8668 23.8059C68.4574 23.3853 68.9178 22.8184 69.2478 22.1053C69.5953 21.3921 69.769 20.5784 69.769 19.6641C69.769 18.7498 69.5953 17.9452 69.2478 17.2504C68.9178 16.5372 68.4574 15.9795 67.8668 15.5772C67.2761 15.1566 66.6073 14.9463 65.8603 14.9463C65.1133 14.9463 64.4444 15.1566 63.8538 15.5772C63.2631 15.9795 62.7941 16.5372 62.4466 17.2504C62.1166 17.9452 61.9515 18.7498 61.9515 19.6641C61.9515 20.5784 62.1166 21.3921 62.4466 22.1053C62.7941 22.8184 63.2631 23.3853 63.8538 23.8059C64.4444 24.2081 65.1133 24.4093 65.8603 24.4093Z" fill="white"/>
<path d="M76.2728 26.8505C75.8363 26.8505 75.4825 26.4966 75.4825 26.0602V13.2955C75.4825 12.859 75.8363 12.5052 76.2728 12.5052H77.7993C78.0344 12.5052 78.2283 12.6891 78.2407 12.9239C78.2642 13.3686 78.9517 13.5596 79.285 13.2641C79.5001 13.0735 79.7353 12.9028 79.9906 12.752C80.7202 12.3132 81.5541 12.0938 82.4921 12.0938C83.5171 12.0938 84.4031 12.3498 85.1501 12.8618C85.9145 13.3738 86.5051 14.0961 86.9221 15.0286C87.339 15.9612 87.5474 17.0584 87.5474 18.3201V26.0602C87.5474 26.4966 87.1936 26.8505 86.7572 26.8505H85.341C84.9046 26.8505 84.5507 26.4966 84.5507 26.0602V18.6767C84.5507 17.5064 84.2989 16.5921 83.7951 15.9338C83.3086 15.2755 82.6224 14.9463 81.7365 14.9463C81.1111 14.9463 80.5465 15.1018 80.0427 15.4126C79.5563 15.7235 79.1741 16.1441 78.8961 16.6744C78.6182 17.2047 78.4792 17.8172 78.4792 18.5121V26.0602C78.4792 26.4966 78.1254 26.8505 77.6889 26.8505H76.2728Z" fill="white"/>
<path d="M122.709 27.2619C122.014 27.2619 121.371 27.1522 120.781 26.9327C120.207 26.7133 119.704 26.4025 119.269 26.0002C118.835 25.5979 118.496 25.1224 118.253 24.5739C118.01 24.0253 117.888 23.4219 117.888 22.7636C117.888 21.8493 118.114 21.0538 118.566 20.3773C119.035 19.6824 119.686 19.143 120.52 18.759C121.354 18.375 122.327 18.1829 123.439 18.1829C124.047 18.1829 124.629 18.2469 125.185 18.375C125.437 18.4247 125.683 18.4857 125.924 18.558C126.334 18.6806 126.774 18.3908 126.774 17.9635C126.774 17.3235 126.661 16.7658 126.435 16.2904C126.209 15.7966 125.888 15.4126 125.471 15.1384C125.054 14.8641 124.55 14.7269 123.96 14.7269C123.334 14.7269 122.77 14.9006 122.266 15.2481C121.942 15.4717 121.672 15.7521 121.455 16.0892C121.242 16.421 120.86 16.6338 120.477 16.5424L119.167 16.2303C118.737 16.1277 118.468 15.6877 118.644 15.2818C118.857 14.7916 119.143 14.3507 119.504 13.9589C120.06 13.3738 120.72 12.9166 121.484 12.5875C122.266 12.2583 123.109 12.0938 124.012 12.0938C124.863 12.0938 125.636 12.24 126.331 12.5326C127.043 12.8252 127.651 13.2366 128.155 13.7669C128.659 14.2972 129.05 14.9281 129.328 15.6595C129.606 16.3909 129.745 17.2047 129.745 18.1007V26.0602C129.745 26.4966 129.391 26.8505 128.954 26.8505H127.401C127.181 26.8505 126.999 26.6784 126.987 26.4585C126.964 26.0381 126.293 25.8521 125.975 26.1277C125.761 26.313 125.523 26.4807 125.263 26.631C124.533 27.0516 123.682 27.2619 122.709 27.2619ZM120.911 22.6264C120.911 23.0287 121.015 23.3944 121.224 23.7236C121.432 24.0344 121.719 24.2813 122.084 24.4641C122.466 24.647 122.909 24.7384 123.413 24.7384C124.055 24.7384 124.629 24.5921 125.132 24.2996C125.636 24.007 126.036 23.6139 126.331 23.1201C126.626 22.6081 126.774 22.0321 126.774 21.3921C126.774 21.1919 126.657 21.009 126.471 20.9357C126.113 20.795 125.745 20.682 125.367 20.5967C124.898 20.4687 124.411 20.4047 123.908 20.4047C123.004 20.4047 122.275 20.6058 121.719 21.0081C121.18 21.4104 120.911 21.9498 120.911 22.6264Z" fill="white"/>
<path d="M133.759 26.8505C133.322 26.8505 132.968 26.4966 132.968 26.0602V13.2955C132.968 12.859 133.322 12.5052 133.759 12.5052H135.274C135.515 12.5052 135.715 12.694 135.728 12.9353C135.755 13.4151 136.566 13.6085 136.92 13.2831C137.031 13.1811 137.147 13.0864 137.268 12.9989C137.893 12.5418 138.623 12.3132 139.457 12.3132C139.717 12.3132 139.969 12.3315 140.213 12.368C140.253 12.3741 140.293 12.381 140.332 12.3885C140.661 12.4528 140.839 12.7836 140.803 13.1175L140.593 15.019C140.559 15.3291 140.237 15.5222 139.926 15.4949C139.717 15.4584 139.509 15.4401 139.301 15.4401C138.258 15.4401 137.442 15.8058 136.851 16.5372C136.26 17.2687 135.965 18.2835 135.965 19.5818V26.0602C135.965 26.4966 135.611 26.8505 135.175 26.8505H133.759Z" fill="white"/>
<path d="M148.996 27.2619C147.988 27.2619 147.059 27.079 146.208 26.7133C145.374 26.3293 144.644 25.799 144.019 25.1224C143.394 24.4459 142.907 23.6504 142.56 22.7361C142.23 21.8036 142.065 20.7795 142.065 19.6641C142.065 18.5852 142.23 17.5887 142.56 16.6744C142.907 15.7601 143.376 14.9646 143.967 14.2881C144.575 13.5932 145.287 13.0538 146.104 12.6698C146.92 12.2858 147.806 12.0938 148.762 12.0938C149.717 12.0938 150.586 12.2766 151.367 12.6423C152.166 12.9898 152.853 13.4926 153.426 14.1509C154.017 14.8092 154.468 15.5955 154.781 16.5098C155.094 17.4058 155.25 18.4024 155.25 19.4995V19.6418C155.25 20.0783 154.896 20.4321 154.46 20.4321H146.042C145.573 20.4321 145.202 20.8396 145.306 21.2964C145.418 21.7847 145.579 22.2281 145.791 22.6264C146.138 23.2299 146.581 23.6961 147.12 24.0253C147.658 24.3544 148.284 24.519 148.996 24.519C150.206 24.519 151.19 24.0377 151.949 23.0752C152.19 22.769 152.598 22.625 152.959 22.7718L154.225 23.2861C154.632 23.4515 154.83 23.921 154.606 24.2985C154.331 24.7605 153.99 25.1814 153.582 25.5613C152.992 26.1099 152.297 26.5305 151.498 26.823C150.716 27.1156 149.882 27.2619 148.996 27.2619ZM148.762 14.6446C148.153 14.6446 147.606 14.7909 147.12 15.0835C146.651 15.3761 146.251 15.7875 145.921 16.3178C145.74 16.6094 145.59 16.9286 145.471 17.2755C145.313 17.7388 145.691 18.1829 146.18 18.1829H151.209C151.691 18.1829 152.067 17.7523 151.929 17.2904C151.823 16.9378 151.688 16.6136 151.524 16.3178C151.228 15.7875 150.837 15.3761 150.351 15.0835C149.882 14.7909 149.352 14.6446 148.762 14.6446Z" fill="white"/>
<path d="M95.4411 27.2618C94.5551 27.2618 93.7299 27.1064 92.9656 26.7955C92.2186 26.4847 91.5758 26.0458 91.0373 25.479C90.602 24.9903 90.2697 24.4314 90.0405 23.8024C89.965 23.5955 90.0904 23.3743 90.3029 23.3163L90.8706 23.1611C91.8629 22.89 92.8562 23.5256 93.6971 24.1181C93.7051 24.1237 93.7132 24.1294 93.7213 24.1349C94.225 24.4824 94.807 24.6561 95.4672 24.6561C96.1447 24.6561 96.7006 24.4915 97.1349 24.1624C97.5692 23.8149 97.7863 23.3761 97.7863 22.8458C97.7863 22.3886 97.6126 22.0046 97.2652 21.6938C96.9177 21.3829 96.3531 21.1543 95.5714 21.0081L94.7115 20.8435C93.2522 20.5692 92.1491 20.0755 91.4021 19.3623C90.6724 18.6492 90.3076 17.7349 90.3076 16.6194C90.3076 15.7234 90.5248 14.9372 90.9591 14.2606C91.3934 13.584 91.9927 13.0537 92.7571 12.6697C93.5215 12.2857 94.3988 12.0937 95.389 12.0937C96.2402 12.0937 97.022 12.2491 97.7342 12.56C98.4465 12.8708 99.0458 13.3097 99.5322 13.8766C99.71 14.0837 99.8692 14.3043 100.01 14.5384C100.423 15.2261 99.9381 16.0415 99.1607 16.2401C98.4411 16.4239 97.7351 15.982 97.2095 15.4572C97.1137 15.3615 97.0107 15.2735 96.9004 15.1932C96.4661 14.8457 95.9536 14.672 95.3629 14.672C94.7549 14.672 94.2511 14.8366 93.8515 15.1657C93.452 15.4766 93.2522 15.8789 93.2522 16.3726C93.2522 16.7932 93.4259 17.1406 93.7734 17.4149C94.1382 17.6892 94.7462 17.9086 95.5974 18.0732L96.4574 18.2378C97.8471 18.4938 98.9155 18.9966 99.6625 19.7463C100.41 20.4961 100.783 21.4286 100.783 22.5441C100.783 23.2207 100.653 23.8515 100.392 24.4367C100.132 25.0035 99.7581 25.5064 99.2717 25.9452C98.8026 26.3658 98.238 26.6858 97.5779 26.9053C96.9351 27.143 96.2228 27.2618 95.4411 27.2618Z" fill="white"/>
<path d="M103.641 26.8504C103.423 26.8504 103.246 26.6735 103.246 26.4553V6.83851C103.246 6.62027 103.423 6.44336 103.641 6.44336H105.847C106.066 6.44336 106.243 6.62027 106.243 6.83851V12.8707C106.243 13.2665 106.83 13.4635 107.131 13.2069C107.368 13.0051 107.627 12.826 107.91 12.6697C108.605 12.2857 109.387 12.0937 110.256 12.0937C111.281 12.0937 112.167 12.3497 112.914 12.8617C113.678 13.3737 114.269 14.096 114.686 15.0286C115.102 15.9612 115.311 17.0583 115.311 18.32V26.4553C115.311 26.6735 115.134 26.8504 114.916 26.8504H112.709C112.491 26.8504 112.314 26.6735 112.314 26.4553V18.6766C112.314 17.5063 112.062 16.592 111.559 15.9337C111.072 15.2754 110.386 14.9463 109.5 14.9463C108.875 14.9463 108.31 15.1017 107.806 15.4126C107.32 15.7234 106.938 16.144 106.66 16.6743C106.382 17.2046 106.243 17.8172 106.243 18.512V26.4553C106.243 26.6735 106.066 26.8504 105.847 26.8504H103.641Z" fill="white"/>
<path fill-rule="evenodd" clip-rule="evenodd" d="M16.5855 32.87C25.6886 32.87 33.068 25.6985 33.068 16.852C33.068 8.00549 25.6886 0.833984 16.5855 0.833984C7.48249 0.833984 0.103027 8.00549 0.103027 16.852C0.103027 25.6985 7.48249 32.87 16.5855 32.87ZM28.9334 21.8663C29.2912 22.1107 29.5953 22.4219 29.828 22.7817C30.1065 23.2274 30.2686 23.7326 30.3003 24.2532C30.3319 24.7738 30.232 25.2939 30.0093 25.7684C29.7867 26.2429 29.448 26.6572 29.0228 26.9753C28.5976 27.2934 28.0988 27.5057 27.5699 27.5935C27.0409 27.6814 26.4979 27.6422 25.9882 27.4794C25.4784 27.3166 25.0174 27.035 24.6452 26.6594C24.273 26.2837 24.001 25.8253 23.8529 25.324C23.7048 24.8228 23.6852 24.294 23.7956 23.7837C23.982 22.992 24.0059 22.1724 23.8657 21.3718C23.7256 20.5712 23.4243 19.8054 22.979 19.1181C22.5338 18.4309 21.9533 17.8359 21.2709 17.3671C20.5885 16.8983 19.8177 16.565 19.0025 16.3863C18.3724 16.2375 17.8016 15.9111 17.3618 15.448C16.9219 14.9849 16.6327 14.4058 16.5304 13.7836C16.4281 13.1613 16.5173 12.5235 16.7868 11.9503C17.0563 11.3771 17.494 10.8941 18.0451 10.5618C18.5961 10.2296 19.2358 10.0631 19.884 10.0831C20.5321 10.1031 21.1597 10.3087 21.688 10.6742C22.2163 11.0397 22.6216 11.5487 22.8531 12.1374C23.0847 12.726 23.1321 13.368 22.9894 13.9828C22.6183 15.5733 22.91 17.2419 23.8009 18.624C24.6918 20.0061 26.1095 20.9893 27.744 21.3587C28.1712 21.4495 28.5756 21.622 28.9334 21.8663ZM9.29035 19.2325C9.86598 19.5377 10.5223 19.6689 11.1751 19.6091C11.828 19.5494 12.4475 19.3014 12.9544 18.8971C13.4612 18.4927 13.8322 17.9504 14.0196 17.3398C14.2071 16.7291 14.2026 16.078 14.0066 15.4698C13.7582 14.6944 13.6697 13.879 13.7462 13.0702C13.8227 12.2615 14.0627 11.4754 14.4525 10.757C14.8422 10.0386 15.374 9.40199 16.0174 8.8837C16.6608 8.36541 17.4032 7.97569 18.2019 7.73677C18.8214 7.54821 19.3695 7.18578 19.7775 6.69514C20.1855 6.2045 20.4351 5.60754 20.4948 4.97937C20.5545 4.3512 20.4217 3.71989 20.113 3.16495C19.8044 2.60997 19.3338 2.1561 18.7603 1.86048C18.1869 1.56486 17.5363 1.44064 16.8904 1.50353C16.2445 1.56639 15.6322 1.81349 15.1305 2.21379C14.6288 2.61404 14.2601 3.1496 14.0708 3.75302C13.8816 4.35645 13.8802 5.00079 14.0669 5.60496C14.557 7.16471 14.3913 8.84967 13.6061 10.291C12.8208 11.7323 11.48 12.8125 9.87714 13.2954C9.24438 13.4737 8.68124 13.8325 8.26067 14.3254C7.8401 14.8183 7.58144 15.4225 7.51822 16.0598C7.45504 16.6971 7.59015 17.3382 7.90611 17.9C8.22207 18.4619 8.70429 18.9186 9.29035 19.2111V19.2325ZM16.9576 18.7801C17.355 18.6016 17.785 18.502 18.2225 18.4871C18.7599 18.4738 19.2925 18.5888 19.7737 18.8218C20.2548 19.0548 20.6699 19.3988 20.9826 19.8238C21.2953 20.2488 21.4961 20.7418 21.5674 21.2596C21.6387 21.7774 21.5784 22.3043 21.3917 22.7943C21.205 23.2842 20.8976 23.7222 20.4964 24.07C20.0952 24.4178 19.6125 24.6648 19.0904 24.7893C18.5683 24.9138 18.0228 24.9121 17.5015 24.7844C16.9802 24.6566 16.4991 24.4067 16.1002 24.0564C15.4875 23.5036 14.7685 23.0737 13.9846 22.7912C13.2006 22.5089 12.367 22.3796 11.5316 22.4108C10.6961 22.4419 9.87521 22.633 9.11583 22.973C8.35649 23.313 7.67364 23.7953 7.10635 24.3922C6.73345 24.7677 6.27162 25.0488 5.76115 25.211C5.25072 25.3731 4.70717 25.4114 4.178 25.3225C3.64884 25.2335 3.15014 25.0201 2.72538 24.7008C2.30062 24.3814 1.96278 23.9659 1.74127 23.4905C1.51976 23.015 1.4214 22.4941 1.45468 21.9732C1.48801 21.4524 1.65197 20.9473 1.93235 20.5022C2.21269 20.0571 2.60086 19.6854 3.06306 19.4196C3.52521 19.1538 4.04732 19.002 4.58374 18.9774C5.01954 18.9609 5.45438 19.0286 5.86294 19.1769C6.27154 19.3251 6.64573 19.5508 6.96378 19.8408C8.19475 20.9479 9.82669 21.5363 11.5028 21.4773C13.1789 21.4184 14.7628 20.717 15.9082 19.5264C16.2034 19.2122 16.5602 18.9585 16.9576 18.7801Z" fill="white"/>
</svg>
